<svg width="905" height="1024" viewBox="0 0 905 1024" fill="none" xmlns="http://www.w3.org/2000/svg">
<path fill-rule="evenodd" clip-rule="evenodd" d="M1112.98 485.514C1112.98 645.337 1045.61 789.425 937.714 890.922L1088.79 1042H544.409V1041.87C242.66 1035.44 0.0273438 788.81 0.0273438 485.514C0.0273438 178.175 249.171 -70.9722 556.506 -70.9722C863.841 -70.9722 1112.98 178.175 1112.98 485.514ZM895.237 485.523C895.237 613.266 824.526 724.493 720.11 782.197L762.166 824.254H556.511C369.438 824.254 217.785 672.599 217.785 485.523C217.785 298.447 369.438 146.792 556.511 146.792C743.585 146.792 895.237 298.447 895.237 485.523Z" fill="#F8FAFB"/>
</svg>
