<svg width="91" height="28" viewBox="0 0 91 28" fill="none" xmlns="http://www.w3.org/2000/svg">
<path fill-rule="evenodd" clip-rule="evenodd" d="M27.9999 14C27.9999 18.0208 26.3049 21.6457 23.5904 24.1991L27.3912 27.9999H13.6956V27.9967C6.10418 27.8347 0 21.6302 0 14C0 6.26799 6.26799 0 14 0C21.7319 0 27.9999 6.26799 27.9999 14ZM22.5214 14C22.5214 17.2137 20.7424 20.012 18.1155 21.4637L19.1736 22.5217H13.9997C9.29328 22.5217 5.47798 18.7064 5.47798 14C5.47798 9.2936 9.29328 5.4783 13.9997 5.4783C18.7061 5.4783 22.5214 9.2936 22.5214 14Z" fill="#223C69"/>
<path d="M40.6521 27.9999C38.7173 27.9999 36.9497 27.558 35.3492 26.6742C33.7727 25.7904 32.5067 24.5841 31.5512 23.0553C30.6196 21.5026 30.1538 19.747 30.1538 17.7882C30.1538 15.8056 30.6196 14.0499 31.5512 12.5211C32.5067 10.9924 33.7727 9.78608 35.3492 8.90227C36.9497 8.01845 38.7173 7.57654 40.6521 7.57654C42.587 7.57654 44.3427 8.01845 45.9192 8.90227C47.4958 9.78608 48.7498 10.9924 49.6814 12.5211C50.6369 14.0499 51.1146 15.8056 51.1146 17.7882C51.1146 19.747 50.6369 21.5026 49.6814 23.0553C48.7498 24.5841 47.4958 25.7904 45.9192 26.6742C44.3427 27.558 42.587 27.9999 40.6521 27.9999ZM40.6521 23.1628C41.6315 23.1628 42.4795 22.9359 43.1961 22.482C43.9366 22.0282 44.5099 21.3952 44.916 20.583C45.3459 19.7708 45.5609 18.8392 45.5609 17.7882C45.5609 16.7372 45.3459 15.8175 44.916 15.0293C44.5099 14.2171 43.9366 13.5841 43.1961 13.1303C42.4795 12.6525 41.6315 12.4137 40.6521 12.4137C39.6728 12.4137 38.8128 12.6525 38.0723 13.1303C37.3318 13.5841 36.7466 14.2171 36.3166 15.0293C35.9106 15.8175 35.7075 16.7372 35.7075 17.7882C35.7075 18.8392 35.9106 19.7708 36.3166 20.583C36.7466 21.3952 37.3318 22.0282 38.0723 22.482C38.8128 22.9359 39.6728 23.1628 40.6521 23.1628Z" fill="#223C69"/>
<path d="M62.9956 27.9999C61.0608 27.9999 59.2931 27.558 57.6927 26.6742C56.1162 25.7904 54.8502 24.5841 53.8947 23.0553C52.9631 21.5026 52.4973 19.747 52.4973 17.7882C52.4973 15.8056 52.9631 14.0499 53.8947 12.5211C54.8502 10.9924 56.1162 9.78608 57.6927 8.90227C59.2931 8.01845 61.0608 7.57654 62.9956 7.57654C64.9305 7.57654 66.6862 8.01845 68.2627 8.90227C69.8392 9.78608 71.0933 10.9924 72.0249 12.5211C72.9804 14.0499 73.4581 15.8056 73.4581 17.7882C73.4581 19.747 72.9804 21.5026 72.0249 23.0553C71.0933 24.5841 69.8392 25.7904 68.2627 26.6742C66.6862 27.558 64.9305 27.9999 62.9956 27.9999ZM62.9956 23.1628C63.975 23.1628 64.823 22.9359 65.5396 22.482C66.2801 22.0282 66.8534 21.3952 67.2595 20.583C67.6894 19.7708 67.9044 18.8392 67.9044 17.7882C67.9044 16.7372 67.6894 15.8175 67.2595 15.0293C66.8534 14.2171 66.2801 13.5841 65.5396 13.1303C64.823 12.6525 63.975 12.4137 62.9956 12.4137C62.0163 12.4137 61.1563 12.6525 60.4158 13.1303C59.6753 13.5841 59.0901 14.2171 58.6601 15.0293C58.2541 15.8175 58.051 16.7372 58.051 17.7882C58.051 18.8392 58.2541 19.7708 58.6601 20.583C59.0901 21.3952 59.6753 22.0282 60.4158 22.482C61.1563 22.9359 62.0163 23.1628 62.9956 23.1628Z" fill="#223C69"/>
<path d="M83.2968 27.9999C81.147 27.9999 79.2718 27.4983 77.6714 26.495C76.0949 25.4679 75.02 24.0944 74.4467 22.3745L78.388 20.5113C78.8896 21.5624 79.5704 22.3865 80.4304 22.9836C81.2903 23.5808 82.2458 23.8794 83.2968 23.8794C84.0612 23.8794 84.6464 23.7241 85.0525 23.4136C85.4586 23.1031 85.6616 22.6731 85.6616 22.1237C85.6616 21.8371 85.5899 21.5982 85.4466 21.4071C85.3033 21.1921 85.0883 21.001 84.8017 20.8338C84.515 20.6666 84.1567 20.5233 83.7267 20.4038L80.3945 19.4723C78.7941 19.0184 77.5639 18.2898 76.704 17.2866C75.844 16.2595 75.4141 15.0532 75.4141 13.6677C75.4141 12.4495 75.7246 11.3865 76.3457 10.4788C76.9667 9.5711 77.8386 8.86643 78.9613 8.36481C80.084 7.8393 81.3739 7.57654 82.831 7.57654C84.742 7.57654 86.414 8.03039 87.8473 8.9381C89.3044 9.82191 90.3315 11.076 90.9287 12.7003L86.9515 14.5635C86.6649 13.7513 86.1393 13.1064 85.375 12.6286C84.6345 12.127 83.7865 11.8762 82.831 11.8762C82.1383 11.8762 81.5889 12.0195 81.1828 12.3062C80.8006 12.5928 80.6095 12.9869 80.6095 13.4886C80.6095 13.7513 80.6812 13.9902 80.8245 14.2052C80.9678 14.4202 81.1947 14.6113 81.5053 14.7785C81.8397 14.9457 82.2458 15.1009 82.7235 15.2443L85.8407 16.1759C87.4651 16.6536 88.7072 17.3821 89.5671 18.3615C90.427 19.317 90.857 20.4994 90.857 21.9087C90.857 23.127 90.5345 24.1899 89.8896 25.0976C89.2685 26.0053 88.3967 26.722 87.274 27.2475C86.1513 27.7491 84.8256 27.9999 83.2968 27.9999Z" fill="#223C69"/>
</svg>
